<?xml version="1.0" encoding="UTF-8" standalone="no"?>
<!-- Created with Inkscape (http://www.inkscape.org/) -->

<svg
   width="51.503635mm"
   height="81.21701mm"
   viewBox="0 0 51.503635 81.21701"
   version="1.1"
   id="svg1"
   xmlns="http://www.w3.org/2000/svg"
   xmlns:svg="http://www.w3.org/2000/svg">
  <defs
     id="defs1" />
  <g
     id="layer1"
     transform="translate(-57.414582,-125.14791)rotate(45)">
    <g
       id="g35"
       transform="translate(-2.3906877,106.00118)">
      <path
         style="fill:#000000;fill-opacity:1;stroke:#000000;stroke-width:2.565;stroke-dasharray:none"
         id="path5"
         d="m 74.60984,54.832429 c 0.87431,-1.445532 0.812869,-1.37251 1.960496,-3.087573 0.716092,-1.070158 1.411275,-2.155532 2.171375,-3.194892 2.777519,-3.797972 5.905643,-7.309958 9.042799,-10.807917 2.211367,-2.349193 3.211806,-3.47328 5.458635,-5.645859 0.929754,-0.899027 2.406562,-2.354603 3.633748,-3.021417 0.365984,-0.198863 0.777221,-0.419735 1.191498,-0.376513 0.347257,0.03623 0.57649,0.394034 0.864737,0.59105 -18.373809,-9.827519 -13.084071,-9.11448 -10.257268,-4.463329 0.54297,0.89339 1.00526,1.834258 1.46423,2.773573 1.431153,2.928972 2.648191,5.970604 3.900755,8.978435 0.912053,2.546225 2.21977,5.019963 2.684907,7.708786 0.01842,0.252193 0.0053,0.308602 0.02603,0.171749 0,0 12.920008,7.437593 12.920008,7.437593 v 0 c 0.3637,-0.705667 0.25702,-0.342252 0.34468,-1.082699 -0.13273,-1.010044 -0.39494,-1.770247 -0.76587,-2.730013 -0.74342,-1.923576 -1.63951,-3.780152 -2.48076,-5.661691 -1.34321,-2.991276 -2.65513,-5.989929 -3.90199,-9.022946 -0.37865,-0.921062 -0.73302,-1.852186 -1.12483,-2.767724 -0.28246,-0.660027 -0.30944,-1.546066 -0.89752,-1.957866 -4.333531,-3.034501 -9.063043,-5.460029 -13.594564,-8.190043 -0.445659,0.06636 -0.917001,0.03587 -1.336974,0.19908 -0.876813,0.340746 -2.091716,1.596768 -2.648019,2.180398 -2.428462,2.547761 -4.579797,5.352 -6.969707,7.934214 -2.131433,2.433502 -4.288972,4.844187 -6.406679,7.289646 -2.661594,3.07353 -5.251717,6.214761 -8.049133,9.167961 z" />
      <path
         style="fill:#000000;fill-opacity:1;stroke:#000000;stroke-width:2.565;stroke-dasharray:none"
         id="path6"
         d="m 82.419274,33.530034 c 2.584643,5.83768 3.368045,12.102179 3.583736,18.43872 0.08276,2.431486 0.0282,4.865706 0.0423,7.29856 -0.253828,10.03382 -0.960067,20.066399 -2.456159,29.994905 -0.293706,1.649142 -0.145344,0.928259 -0.420087,2.167641 0,0 13.045675,6.819397 13.045675,6.819397 v 0 c 0.0039,-1.405056 5.3e-4,-0.597789 0.01286,-2.421792 0.122902,-10.280298 0.492485,-20.554325 1.032211,-30.821214 0.250436,-6.065171 0.644911,-12.169995 -0.03487,-18.226296 -0.125074,-1.114309 -0.384672,-2.209403 -0.587073,-3.31229 -0.501124,-2.730616 -0.247706,-1.773039 -0.869074,-3.706942 z" />
    </g>
  </g>
</svg>
